<mxfile host="app.diagrams.net" agent="Mozilla/5.0 (Windows NT 10.0; Win64; x64) AppleWebKit/537.36 (KHTML, like Gecko) Chrome/133.0.0.0 Safari/537.36" version="26.0.16">
  <diagram id="C5RBs43oDa-KdzZeNtuy" name="Page-1">
    <mxGraphModel dx="1050" dy="557" grid="1" gridSize="10" guides="1" tooltips="1" connect="1" arrows="1" fold="1" page="1" pageScale="1" pageWidth="827" pageHeight="1169" math="0" shadow="0">
      <root>
        <mxCell id="WIyWlLk6GJQsqaUBKTNV-0" />
        <mxCell id="WIyWlLk6GJQsqaUBKTNV-1" parent="WIyWlLk6GJQsqaUBKTNV-0" />
        <mxCell id="iTjJCRI-fQ-VB6AfiEo2-10" value="&lt;b&gt;FARMAR&lt;/b&gt;" style="verticalAlign=top;align=center;overflow=fill;html=1;whiteSpace=wrap;" vertex="1" parent="WIyWlLk6GJQsqaUBKTNV-1">
          <mxGeometry x="140" y="170" width="140" height="30" as="geometry" />
        </mxCell>
        <mxCell id="iTjJCRI-fQ-VB6AfiEo2-11" value="" style="endArrow=none;dashed=1;html=1;dashPattern=1 3;strokeWidth=2;rounded=0;entryX=0.437;entryY=1.087;entryDx=0;entryDy=0;entryPerimeter=0;" edge="1" parent="WIyWlLk6GJQsqaUBKTNV-1" source="iTjJCRI-fQ-VB6AfiEo2-14" target="iTjJCRI-fQ-VB6AfiEo2-10">
          <mxGeometry width="50" height="50" relative="1" as="geometry">
            <mxPoint x="201" y="520" as="sourcePoint" />
            <mxPoint x="420" y="210" as="targetPoint" />
            <Array as="points" />
          </mxGeometry>
        </mxCell>
        <mxCell id="iTjJCRI-fQ-VB6AfiEo2-12" value="&lt;b&gt;DATABASE&lt;/b&gt;" style="verticalAlign=top;align=center;overflow=fill;html=1;whiteSpace=wrap;" vertex="1" parent="WIyWlLk6GJQsqaUBKTNV-1">
          <mxGeometry x="390" y="170" width="140" height="30" as="geometry" />
        </mxCell>
        <mxCell id="iTjJCRI-fQ-VB6AfiEo2-13" value="" style="endArrow=none;dashed=1;html=1;dashPattern=1 3;strokeWidth=2;rounded=0;entryX=0.5;entryY=1;entryDx=0;entryDy=0;" edge="1" parent="WIyWlLk6GJQsqaUBKTNV-1" target="iTjJCRI-fQ-VB6AfiEo2-12">
          <mxGeometry width="50" height="50" relative="1" as="geometry">
            <mxPoint x="460" y="520" as="sourcePoint" />
            <mxPoint x="570" y="350" as="targetPoint" />
            <Array as="points">
              <mxPoint x="460" y="370" />
            </Array>
          </mxGeometry>
        </mxCell>
        <mxCell id="iTjJCRI-fQ-VB6AfiEo2-15" value="LOGIN" style="html=1;verticalAlign=bottom;endArrow=block;curved=0;rounded=0;exitX=1;exitY=0;exitDx=0;exitDy=5;exitPerimeter=0;" edge="1" parent="WIyWlLk6GJQsqaUBKTNV-1" source="iTjJCRI-fQ-VB6AfiEo2-14">
          <mxGeometry relative="1" as="geometry">
            <mxPoint x="460" y="255" as="sourcePoint" />
            <mxPoint x="460" y="255" as="targetPoint" />
          </mxGeometry>
        </mxCell>
        <mxCell id="iTjJCRI-fQ-VB6AfiEo2-17" value="" style="endArrow=none;dashed=1;html=1;dashPattern=1 3;strokeWidth=2;rounded=0;entryX=0.437;entryY=1.087;entryDx=0;entryDy=0;entryPerimeter=0;" edge="1" parent="WIyWlLk6GJQsqaUBKTNV-1" target="iTjJCRI-fQ-VB6AfiEo2-14">
          <mxGeometry width="50" height="50" relative="1" as="geometry">
            <mxPoint x="201" y="520" as="sourcePoint" />
            <mxPoint x="201" y="203" as="targetPoint" />
            <Array as="points">
              <mxPoint x="200" y="360" />
            </Array>
          </mxGeometry>
        </mxCell>
        <mxCell id="iTjJCRI-fQ-VB6AfiEo2-14" value="" style="html=1;points=[[0,0,0,0,5],[0,1,0,0,-5],[1,0,0,0,5],[1,1,0,0,-5]];perimeter=orthogonalPerimeter;outlineConnect=0;targetShapes=umlLifeline;portConstraint=eastwest;newEdgeStyle={&quot;curved&quot;:0,&quot;rounded&quot;:0};" vertex="1" parent="WIyWlLk6GJQsqaUBKTNV-1">
          <mxGeometry x="200" y="250" width="10" height="80" as="geometry" />
        </mxCell>
        <mxCell id="iTjJCRI-fQ-VB6AfiEo2-18" value="" style="html=1;points=[[0,0,0,0,5],[0,1,0,0,-5],[1,0,0,0,5],[1,1,0,0,-5]];perimeter=orthogonalPerimeter;outlineConnect=0;targetShapes=umlLifeline;portConstraint=eastwest;newEdgeStyle={&quot;curved&quot;:0,&quot;rounded&quot;:0};" vertex="1" parent="WIyWlLk6GJQsqaUBKTNV-1">
          <mxGeometry x="200" y="400" width="10" height="80" as="geometry" />
        </mxCell>
        <mxCell id="iTjJCRI-fQ-VB6AfiEo2-19" value="Upload Image" style="html=1;verticalAlign=bottom;endArrow=block;curved=0;rounded=0;exitX=1;exitY=0;exitDx=0;exitDy=5;exitPerimeter=0;" edge="1" parent="WIyWlLk6GJQsqaUBKTNV-1" source="iTjJCRI-fQ-VB6AfiEo2-18">
          <mxGeometry relative="1" as="geometry">
            <mxPoint x="460" y="410" as="sourcePoint" />
            <mxPoint x="460" y="405" as="targetPoint" />
          </mxGeometry>
        </mxCell>
        <mxCell id="iTjJCRI-fQ-VB6AfiEo2-20" value="Get detected disease and precaution" style="html=1;verticalAlign=bottom;endArrow=open;dashed=1;endSize=8;curved=0;rounded=0;" edge="1" parent="WIyWlLk6GJQsqaUBKTNV-1" target="iTjJCRI-fQ-VB6AfiEo2-18">
          <mxGeometry relative="1" as="geometry">
            <mxPoint x="350" y="550" as="targetPoint" />
            <mxPoint x="460" y="470" as="sourcePoint" />
          </mxGeometry>
        </mxCell>
      </root>
    </mxGraphModel>
  </diagram>
</mxfile>
